<?xml version="1.0" encoding="UTF-8"?>
<svg width="21px" height="21px" viewBox="0 0 21 21" version="1.1" xmlns="http://www.w3.org/2000/svg" xmlns:xlink="http://www.w3.org/1999/xlink">
    <!-- Generator: Sketch 47.1 (45422) - http://www.bohemiancoding.com/sketch -->
    <title>musica-searcher</title>
    <desc>Created with Sketch.</desc>
    <defs>
        <polygon id="path-1" points="10.0357143 0 0 0 0 20.032303 20.0714286 20.032303 20.0714286 0 10.0357143 0"></polygon>
    </defs>
    <g id="Page-1" stroke="none" stroke-width="1" fill="none" fill-rule="evenodd">
        <g id="Accueil" transform="translate(-1014.000000, -16.000000)">
            <g id="Header" transform="translate(-1.000000, -1.000000)">
                <g id="Mini-Header" transform="translate(0.501558, 0.000000)">
                    <g id="Barre-recherche" transform="translate(999.000000, 11.395506)">
                        <g id="musica-searcher" transform="translate(15.964286, 6.000000)">
                            <mask id="mask-2" fill="white">
                                <use xlink:href="#path-1"></use>
                            </mask>
                            <g id="Clip-2"></g>
                            <path d="M19.5801654,17.1747255 L15.2196625,12.8227227 C15.1965089,12.7997142 15.1695464,12.7836083 15.1452902,12.7622004 C16.0030776,11.463222 16.5038378,9.90794914 16.5038378,8.23593333 C16.5038378,3.68735807 12.8093781,0 8.2519189,0 C3.69445971,0 0,3.68735807 0,8.23593333 C0,12.7844086 3.69445971,16.4717666 8.2519189,16.4717666 C9.9273006,16.4717666 11.4852101,15.9719825 12.7866254,15.1157672 C12.8081753,15.1399761 12.8242125,15.1669861 12.847767,15.1899945 L17.2082699,19.5419974 C17.8632875,20.1957382 18.9250475,20.1957382 19.5801654,19.5419974 C20.235183,18.8882566 20.235183,17.8284663 19.5801654,17.1747255 Z M8.2519189,13.6168151 C5.27432009,13.6168151 2.86052757,11.2077279 2.86052757,8.23593333 C2.86052757,5.26403877 5.27432009,2.85495149 8.2519189,2.85495149 C11.2295177,2.85495149 13.6433102,5.26403877 13.6433102,8.23593333 C13.6433102,11.2077279 11.2295177,13.6168151 8.2519189,13.6168151 Z" id="Fill-1" fill="#345463" mask="url(#mask-2)"></path>
                        </g>
                    </g>
                </g>
            </g>
        </g>
    </g>
</svg>