<?xml version="1.0" encoding="UTF-8"?>
<svg width="235px" height="235px" viewBox="0 0 235 235" version="1.1" xmlns="http://www.w3.org/2000/svg" xmlns:xlink="http://www.w3.org/1999/xlink">
    <!-- Generator: Sketch 47.1 (45422) - http://www.bohemiancoding.com/sketch -->
    <title>Logoblog</title>
    <desc>Created with Sketch.</desc>
    <defs></defs>
    <g id="Page-1" stroke="none" stroke-width="1" fill="none" fill-rule="evenodd">
        <g id="Accueil" transform="translate(-147.000000, -398.000000)" fill-rule="nonzero">
            <g id="Section-1" transform="translate(-3.000000, 130.000000)">
                <g id="Logoblog" transform="translate(150.000000, 268.000000)">
                    <rect id="XMLID_4_" fill="#FFFFFF" x="0" y="0" width="235" height="235"></rect>
                    <path d="M39,80 C39,60.9816779 39,42.0183221 39,23 C92.3151804,23 145.68482,23 199,23 C199,42.0183221 199,60.9816779 199,80 C145.630361,80 92.3151804,80 39,80 Z M65.5214432,74.0086789 C65.5214432,66.4783028 65.5214432,59.002893 65.5214432,51.5274831 C69.5513955,51.5274831 73.526889,51.5274831 77.5023826,51.5274831 C81.4778761,51.5274831 85.5078285,51.5274831 89.483322,51.5274831 C89.7011572,40.9739634 82.0769231,29.4310511 68.9523485,27.4522662 C56.2634445,25.5284474 44.6637168,33.9932498 41.9952349,46.2507232 C39.2722941,58.6730955 46.4608577,71.0954677 58.6596324,74.7232401 C69.987066,78.1311475 81.205582,72.6345227 85.9979578,64.0048216 C85.5622873,63.7299904 85.0721579,63.4551591 84.6364874,63.1803279 C79.2450647,71.8100289 70.7494894,74.0636451 65.5214432,74.0086789 Z M138.550715,36.7415622 C133.377127,29.5959499 123.574541,25.2536162 113.281824,27.9469624 C102.825732,30.7502411 95.6371681,40.1494696 95.3648741,50.7579556 C95.0381212,62.3008679 102.662355,71.9749277 112.955071,74.8331726 C123.084411,77.6364513 133.104833,73.5139826 138.496256,66.1485053 C138.060585,65.8187078 137.624915,65.4889103 137.189244,65.1591128 C132.614704,70.9305689 126.733152,73.8437801 119.435671,74.0636451 C119.435671,59.002893 119.435671,43.997107 119.435671,28.8813886 C126.733152,29.0462874 132.614704,32.0144648 137.189244,37.7859209 C137.679374,37.4011572 138.115044,37.0713597 138.550715,36.7415622 Z M140.946903,28.5515911 C141.05582,28.7714561 141.110279,28.9363549 141.164738,29.1012536 C143.996596,35.4773385 146.828455,41.8534233 149.660313,48.1745419 C153.417971,56.6393443 157.17563,65.1591128 160.933288,73.6239151 C161.096664,73.9537126 161.205582,74.0636451 161.586794,74.0636451 C167.359428,74.0636451 173.132063,74.0636451 178.904697,74.0636451 C179.068074,74.0636451 179.176991,74.0636451 179.394826,74.0636451 C179.340368,73.8437801 179.285909,73.7338476 179.23145,73.6239151 C172.696392,58.7280617 166.106875,43.8322083 159.571818,28.9913211 C159.4629,28.6615236 159.299523,28.5515911 158.972771,28.5515911 C153.145677,28.5515911 147.318584,28.5515911 141.491491,28.5515911 C141.273656,28.5515911 141.164738,28.5515911 140.946903,28.5515911 Z M186.746767,27.2324012 C186.256637,27.2873674 185.494214,27.3423337 184.786249,27.4522662 C178.30565,28.7714561 174.275698,34.8177435 175.473792,41.3587271 C176.562968,47.1301832 181.791014,51.2526519 187.618108,50.8678881 C187.94486,50.8678881 188.053778,50.7029894 188.217155,50.4281581 C190.885636,44.436837 193.49966,38.4455159 196.168142,32.3992285 C196.277059,32.1243973 196.277059,31.9594986 196.059224,31.7396336 C193.717495,28.7714561 190.667801,27.3423337 186.746767,27.2324012 Z" id="XMLID_82_" fill="#FFFFFF"></path>
                    <path d="M66.1214035,73.2828116 C71.3421543,73.337135 79.8258743,71.1641966 85.1553908,62.5810897 C85.5904533,62.852707 86.0798987,63.1243243 86.5149613,63.3959417 C81.6748902,71.9247251 70.526412,77.3570712 59.2147853,73.9890166 C47.0330334,70.4036681 39.8545011,58.1265659 42.5736421,45.8494637 C45.2384003,33.6810084 56.8219412,25.3695189 69.4931384,27.27084 C82.5993982,29.2264846 90.2129931,40.580088 89.9954618,51.064516 C86.0255159,51.064516 82.0011872,51.064516 78.0312413,51.064516 C74.0612953,51.064516 70.0913494,51.064516 66.0670207,51.064516 C66.1214035,58.4525067 66.1214035,65.8404974 66.1214035,73.2828116 Z" id="XMLID_81_" fill="#000000"></path>
                    <path d="M139,36.5139443 C138.565758,36.8398231 138.131517,37.1657019 137.697275,37.4915807 C133.137739,31.7887015 127.275478,28.8557922 120.001931,28.6928528 C120.001931,43.5746519 120.001931,58.4021379 120.001931,73.3382501 C127.275478,73.1753107 133.137739,70.2424014 137.697275,64.5395222 C138.131517,64.865401 138.565758,65.1912798 139,65.5171586 C133.626261,72.8494319 123.638704,76.9229171 113.542588,74.098634 C103.283631,71.274351 95.6844031,61.7152391 96.0100843,50.3094807 C96.2814853,39.8270456 103.446471,30.5394994 113.868269,27.7695295 C124.072946,25.162499 133.843381,29.4532367 139,36.5139443 Z" id="XMLID_80_" fill="#000000"></path>
                    <path d="M141,28.0543478 C141.215603,28.0543478 141.323404,28 141.485106,28 C147.252482,28 153.019858,28 158.787234,28 C159.110638,28 159.27234,28.1086957 159.380142,28.4347826 C165.848227,43.1630435 172.370213,57.8913043 178.838298,72.5652174 C178.892199,72.673913 178.946099,72.8369565 179,73 C178.838298,73 178.676596,73 178.514894,73 C172.801418,73 167.087943,73 161.374468,73 C160.997163,73 160.889362,72.8913043 160.72766,72.5652174 C157.008511,64.1956522 153.289362,55.7717391 149.570213,47.4021739 C146.767376,41.0978261 143.964539,34.7934783 141.161702,28.5434783 C141.161702,28.4347826 141.107801,28.2717391 141,28.0543478 Z" id="XMLID_79_" fill="#000000"></path>
                    <path d="M187.449951,27 C191.378205,27.1602965 194.488072,28.5495329 196.834112,31.3814379 C196.997789,31.5951665 197.052348,31.8088952 196.94323,32.0226239 C194.269836,37.8467303 191.651,43.6708367 188.977605,49.5483753 C188.868487,49.8155362 188.70481,49.9224005 188.377455,49.9758327 C182.539634,50.3498579 177.301963,46.3424452 176.210782,40.7320675 C175.010482,34.4270715 179.047854,28.5495329 185.485824,27.2137287 C186.195092,27.0534322 186.90436,27.0534322 187.449951,27 Z" id="XMLID_78_" fill="#5C4C9A"></path>
                    <g id="XMLID_3_" transform="translate(38.000000, 106.000000)" fill="#000000">
                        <path d="M0.544217687,37.6909091 C0.217687075,37.3636364 0.0544217687,36.8181818 0.0544217687,36.0545455 L0.0544217687,2.78181818 C0.0544217687,2.07272727 0.217687075,1.52727273 0.544217687,1.2 C0.870748299,0.872727273 1.36054422,0.709090909 2.06802721,0.709090909 L11.6462585,0.709090909 C19.1564626,0.709090909 22.8571429,3.70909091 22.8571429,9.76363636 C22.8571429,13.7454545 21.2789116,16.6909091 18.0680272,18.6 L18.122449,18.8181818 C19.9183673,19.3636364 21.3877551,20.4 22.4217687,21.9272727 C23.4557823,23.4545455 24,25.3636364 24,27.6545455 C24,30.8181818 22.9659864,33.3818182 20.8979592,35.3454545 C18.829932,37.2545455 15.8367347,38.2363636 11.8095238,38.2363636 L2.01360544,38.2363636 C1.36054422,38.1818182 0.870748299,38.0181818 0.544217687,37.6909091 Z M11.6462585,15.9272727 C12.7891156,15.9272727 13.6598639,15.5454545 14.2040816,14.8363636 C14.7482993,14.1272727 15.0204082,12.9272727 15.0204082,11.4 C15.0204082,9.87272727 14.7482993,8.78181818 14.2585034,8.12727273 C13.7142857,7.47272727 12.8979592,7.14545455 11.755102,7.14545455 L7.94557823,7.14545455 L7.94557823,15.9818182 L11.6462585,15.9818182 L11.6462585,15.9272727 Z M12.0272109,31.6909091 C13.3333333,31.6909091 14.3129252,31.3090909 14.9659864,30.5454545 C15.5646259,29.7818182 15.8911565,28.5818182 15.8911565,26.8363636 C15.8911565,25.2 15.5646259,24 14.9659864,23.3454545 C14.3673469,22.6363636 13.3877551,22.3090909 12.0272109,22.3090909 L7.94557823,22.3090909 L7.94557823,31.6909091 L12.0272109,31.6909091 L12.0272109,31.6909091 Z" id="XMLID_21_"></path>
                        <path d="M29.877551,37.6909091 C29.5510204,37.3636364 29.3877551,36.8181818 29.3877551,36.0545455 L29.3877551,2.29090909 C29.3877551,1.14545455 30.4217687,0.6 32.4897959,0.6 L34.6122449,0.6 C36.6802721,0.6 37.7142857,1.14545455 37.7142857,2.29090909 L37.7142857,31.2 L45.7142857,31.2 C46.2585034,31.2 46.6938776,31.4181818 46.9659864,31.8545455 C47.2380952,32.2909091 47.3469388,32.9454545 47.3469388,33.8727273 L47.3469388,35.5090909 C47.3469388,36.4363636 47.2380952,37.0909091 46.9659864,37.5272727 C46.6938776,37.9636364 46.3129252,38.1818182 45.7142857,38.1818182 L31.4013605,38.1818182 C30.6938776,38.1818182 30.2040816,38.0181818 29.877551,37.6909091 Z" id="XMLID_26_"></path>
                        <path d="M49.6870748,19.4181818 C49.6870748,6.6 54.3673469,0.218181818 63.6734694,0.218181818 C68.244898,0.218181818 71.7278912,1.8 74.0680272,4.85454545 C76.462585,7.96363636 77.6054422,12.8181818 77.6054422,19.3636364 C77.6054422,25.9636364 76.4081633,30.7636364 74.0680272,33.8727273 C71.6734694,36.9818182 68.244898,38.5090909 63.6734694,38.5090909 C54.3673469,38.6181818 49.6870748,32.1818182 49.6870748,19.4181818 Z M66.8843537,30.4909091 C67.6462585,29.7818182 68.244898,28.5272727 68.6258503,26.7818182 C69.0068027,25.0363636 69.2244898,22.5818182 69.2244898,19.4181818 C69.2244898,16.3090909 69.0068027,13.8545455 68.6258503,12.1090909 C68.244898,10.3636364 67.6462585,9.10909091 66.8843537,8.4 C66.122449,7.69090909 65.0884354,7.30909091 63.7823129,7.30909091 C62.4761905,7.30909091 61.4421769,7.69090909 60.6802721,8.4 C59.8639456,9.10909091 59.2653061,10.3636364 58.8843537,12.1090909 C58.4489796,13.8545455 58.2857143,16.3090909 58.2857143,19.4181818 C58.2857143,22.5272727 58.5034014,24.9818182 58.8843537,26.7818182 C59.3197279,28.5818182 59.9183673,29.8363636 60.6802721,30.5454545 C61.4965986,31.2545455 62.5306122,31.6363636 63.7823129,31.6363636 C65.0340136,31.5818182 66.0680272,31.2 66.8843537,30.4909091 Z" id="XMLID_28_"></path>
                        <path d="M106.612245,16.6909091 C106.938776,17.0181818 107.102041,17.5636364 107.102041,18.3272727 L107.102041,34.3090909 C107.102041,35.1272727 106.557823,35.8909091 105.469388,36.5454545 C104.380952,37.2 103.020408,37.6909091 101.442177,38.0727273 C99.8639456,38.4545455 98.2857143,38.6181818 96.8163265,38.6181818 C91.8095238,38.6181818 88.1632653,37.0363636 85.7687075,33.9272727 C83.3741497,30.8181818 82.2312925,25.9090909 82.2312925,19.3090909 C82.2312925,12.8727273 83.4285714,8.07272727 85.8231293,4.96363636 C88.2176871,1.8 91.9183673,0.272727273 96.9251701,0.272727273 C98.5034014,0.272727273 100.081633,0.436363636 101.55102,0.818181818 C103.07483,1.2 104.272109,1.69090909 105.197279,2.29090909 C106.122449,2.89090909 106.612245,3.49090909 106.612245,4.09090909 C106.612245,4.58181818 106.44898,5.18181818 106.068027,5.94545455 C105.687075,6.70909091 105.251701,7.41818182 104.707483,8.01818182 C104.163265,8.61818182 103.673469,8.89090909 103.238095,8.89090909 C103.07483,8.89090909 102.693878,8.78181818 102.095238,8.50909091 C101.496599,8.23636364 100.789116,8.01818182 100.081633,7.8 C99.3197279,7.58181818 98.4489796,7.52727273 97.414966,7.52727273 C95.1292517,7.52727273 93.4421769,8.50909091 92.4081633,10.4181818 C91.3197279,12.3272727 90.829932,15.3272727 90.829932,19.4181818 C90.829932,23.7818182 91.3197279,26.8363636 92.3537415,28.6909091 C93.3877551,30.4909091 94.8571429,31.4181818 96.8707483,31.4181818 C97.7414966,31.4181818 98.4489796,31.3636364 99.047619,31.2 L99.047619,23.4 L96.3265306,23.4 C95.7823129,23.4 95.4013605,23.1818182 95.1292517,22.7454545 C94.8571429,22.3090909 94.7482993,21.6545455 94.7482993,20.7272727 L94.7482993,19.0363636 C94.7482993,18.1090909 94.8571429,17.4545455 95.1292517,17.0181818 C95.4013605,16.5818182 95.7823129,16.3636364 96.3265306,16.3636364 L105.142857,16.3636364 C105.795918,16.2 106.285714,16.3636364 106.612245,16.6909091 Z" id="XMLID_31_"></path>
                        <path d="M0.544217687,88.7454545 C0.217687075,88.4181818 0.0544217687,87.8727273 0.0544217687,87.1090909 L0.0544217687,53.8909091 C0.0544217687,53.1272727 0.217687075,52.5818182 0.544217687,52.2545455 C0.870748299,51.9272727 1.36054422,51.7636364 2.06802721,51.7636364 L12.244898,51.7636364 C16.8707483,51.7636364 20.2993197,53.2909091 22.4761905,56.4 C24.6530612,59.5090909 25.7414966,64.2 25.7414966,70.4727273 C25.7414966,76.7454545 24.6530612,81.4363636 22.4761905,84.5454545 C20.2993197,87.6545455 16.8707483,89.1818182 12.244898,89.1818182 L2.01360544,89.1818182 C1.36054422,89.2363636 0.870748299,89.0727273 0.544217687,88.7454545 Z M11.9183673,82.2 C13.8231293,82.2 15.1836735,81.3272727 16,79.5272727 C16.8163265,77.7818182 17.2517007,74.7272727 17.2517007,70.4181818 C17.2517007,66.1090909 16.8163265,63.1090909 16,61.3090909 C15.1836735,59.5636364 13.8231293,58.6363636 11.9183673,58.6363636 L8.48979592,58.6363636 L8.48979592,82.0909091 L11.9183673,82.0909091 L11.9183673,82.2 Z" id="XMLID_33_"></path>
                        <path d="M31.1836735,87.6 L31.1836735,53.2909091 C31.1836735,52.0909091 32.2176871,51.5454545 34.2857143,51.5454545 L36.5170068,51.5454545 C38.5306122,51.5454545 39.5646259,52.1454545 39.5646259,53.2909091 L39.5646259,87.6 C39.5646259,88.8 38.5306122,89.3454545 36.5170068,89.3454545 L34.2857143,89.3454545 C32.2176871,89.4 31.1836735,88.8 31.1836735,87.6 Z" id="XMLID_36_"></path>
                        <path d="M69.3333333,67.7454545 C69.6598639,68.0727273 69.8231293,68.6181818 69.8231293,69.3818182 L69.8231293,85.3636364 C69.8231293,86.1818182 69.2789116,86.9454545 68.1904762,87.6 C67.1020408,88.2545455 65.7414966,88.7454545 64.1632653,89.1272727 C62.585034,89.5090909 61.0068027,89.6727273 59.537415,89.6727273 C54.5306122,89.6727273 50.8843537,88.0909091 48.4897959,84.9818182 C46.0952381,81.8727273 44.952381,76.9636364 44.952381,70.3636364 C44.952381,63.9272727 46.1496599,59.1272727 48.5442177,56.0181818 C50.9387755,52.8545455 54.6394558,51.3272727 59.6462585,51.3272727 C61.2244898,51.3272727 62.8027211,51.4909091 64.2721088,51.8727273 C65.7959184,52.2545455 66.9931973,52.7454545 67.9183673,53.3454545 C68.8435374,53.9454545 69.3333333,54.5454545 69.3333333,55.1454545 C69.3333333,55.6363636 69.170068,56.2363636 68.7891156,57 C68.4081633,57.7636364 67.9727891,58.4727273 67.4285714,59.0727273 C66.8843537,59.6727273 66.3945578,59.9454545 65.9591837,59.9454545 C65.7959184,59.9454545 65.414966,59.8363636 64.8163265,59.5636364 C64.2176871,59.2909091 63.5102041,59.0727273 62.8027211,58.8545455 C62.0408163,58.6363636 61.170068,58.5818182 60.1360544,58.5818182 C57.8503401,58.5818182 56.1632653,59.5636364 55.1292517,61.4727273 C54.0408163,63.3818182 53.5510204,66.3818182 53.5510204,70.4727273 C53.5510204,74.8363636 54.0408163,77.8909091 55.0748299,79.7454545 C56.1088435,81.5454545 57.5782313,82.4727273 59.5918367,82.4727273 C60.462585,82.4727273 61.170068,82.4181818 61.7687075,82.2545455 L61.7687075,74.4545455 L59.047619,74.4545455 C58.5034014,74.4545455 58.122449,74.2363636 57.8503401,73.8 C57.5782313,73.3636364 57.4693878,72.7090909 57.4693878,71.7818182 L57.4693878,70.0909091 C57.4693878,69.1636364 57.5782313,68.5090909 57.8503401,68.0727273 C58.122449,67.6363636 58.5034014,67.4181818 59.047619,67.4181818 L67.8639456,67.4181818 C68.5170068,67.2545455 69.0068027,67.4181818 69.3333333,67.7454545 Z" id="XMLID_38_"></path>
                        <path d="M75.8095238,87.6 L75.8095238,53.2909091 C75.8095238,52.0909091 76.8435374,51.5454545 78.9115646,51.5454545 L81.1428571,51.5454545 C83.1564626,51.5454545 84.1904762,52.1454545 84.1904762,53.2909091 L84.1904762,87.6 C84.1904762,88.8 83.1564626,89.3454545 81.1428571,89.3454545 L78.9115646,89.3454545 C76.8435374,89.4 75.8095238,88.8 75.8095238,87.6 Z" id="XMLID_40_"></path>
                        <path d="M95.4557823,87.6 L95.4557823,58.6909091 L89.5238095,58.6909091 C88.9795918,58.6909091 88.5986395,58.4727273 88.3265306,58.0363636 C88.0544218,57.6 87.9455782,56.9454545 87.9455782,56.0181818 L87.9455782,54.3818182 C87.9455782,53.4545455 88.0544218,52.8 88.3265306,52.3636364 C88.5986395,51.9272727 88.9795918,51.7090909 89.5238095,51.7090909 L109.823129,51.7090909 C110.367347,51.7090909 110.802721,51.9272727 111.07483,52.3636364 C111.346939,52.8 111.455782,53.4545455 111.455782,54.3818182 L111.455782,56.0181818 C111.455782,56.9454545 111.346939,57.6 111.07483,58.0363636 C110.802721,58.4727273 110.421769,58.6909091 109.823129,58.6909091 L103.836735,58.6909091 L103.836735,87.6 C103.836735,88.7454545 102.802721,89.2909091 100.734694,89.2909091 L98.5578231,89.2909091 C96.4897959,89.3454545 95.4557823,88.7454545 95.4557823,87.6 Z" id="XMLID_42_"></path>
                        <path d="M111.07483,88.1454545 C111.07483,87.8727273 111.129252,87.5454545 111.238095,87.1636364 L119.455782,53.0727273 C119.727891,52.0909091 120.816327,51.5454545 122.721088,51.5454545 L126.204082,51.5454545 C128.163265,51.5454545 129.251701,52.0363636 129.52381,53.0727273 L137.741497,87.1636364 C137.795918,87.6545455 137.85034,87.9818182 137.85034,88.1454545 C137.85034,88.9090909 137.088435,89.3454545 135.564626,89.3454545 L132.734694,89.3454545 C131.047619,89.3454545 130.068027,88.9636364 129.904762,88.2 L128.489796,81.6545455 L120.380952,81.6545455 L118.911565,88.2 C118.748299,88.9636364 117.931973,89.3454545 116.408163,89.3454545 L113.632653,89.3454545 C111.945578,89.3454545 111.07483,88.9636364 111.07483,88.1454545 Z M127.619048,75.1090909 L125.22449,63.7636364 C124.952381,62.4545455 124.734694,61.1454545 124.571429,59.6727273 L124.29932,59.6727273 C124.136054,61.0909091 123.918367,62.4545455 123.646259,63.7636364 L121.306122,75.1090909 L127.619048,75.1090909 Z" id="XMLID_44_"></path>
                        <path d="M142.040816,88.7454545 C141.714286,88.4181818 141.55102,87.8727273 141.55102,87.1090909 L141.55102,53.3454545 C141.55102,52.2 142.585034,51.6545455 144.653061,51.6545455 L146.77551,51.6545455 C148.843537,51.6545455 149.877551,52.2 149.877551,53.3454545 L149.877551,82.2545455 L157.823129,82.2545455 C158.367347,82.2545455 158.802721,82.4727273 159.07483,82.9090909 C159.346939,83.3454545 159.455782,84 159.455782,84.9272727 L159.455782,86.5636364 C159.455782,87.4909091 159.346939,88.1454545 159.07483,88.5818182 C158.802721,89.0181818 158.421769,89.2363636 157.823129,89.2363636 L143.510204,89.2363636 C142.857143,89.2363636 142.367347,89.0727273 142.040816,88.7454545 Z" id="XMLID_47_"></path>
                    </g>
                    <rect id="XMLID_22_" fill="#000000" x="39" y="93" width="160" height="1"></rect>
                    <polygon id="XMLID_7_" fill="#28EA89" points="167 145 156 125.972583 167 107 189 107 200 125.972583 189 145"></polygon>
                </g>
            </g>
        </g>
    </g>
</svg>