<?xml version="1.0" encoding="UTF-8"?>
<svg width="34px" height="35px" viewBox="0 0 34 35" version="1.1" xmlns="http://www.w3.org/2000/svg" xmlns:xlink="http://www.w3.org/1999/xlink">
    <!-- Generator: Sketch 47.1 (45422) - http://www.bohemiancoding.com/sketch -->
    <title>web</title>
    <desc>Created with Sketch.</desc>
    <defs></defs>
    <g id="Page-1" stroke="none" stroke-width="1" fill="none" fill-rule="evenodd">
        <g id="Accueil" transform="translate(-306.000000, -74.000000)" fill-rule="nonzero" fill="#28EA89">
            <g id="Header" transform="translate(-1.000000, -1.000000)">
                <g transform="translate(1.000000, 53.000000)" id="Web">
                    <g transform="translate(306.000000, 22.000000)">
                        <g id="web">
                            <path d="M28.4242424,5.83333333 C25.4545455,2.75757576 21.6363636,1.06060606 17.5,0.848484848 L17.5,0.848484848 L16.969697,0.848484848 L16.4393939,0.848484848 L16.4393939,0.848484848 C12.3030303,0.954545455 8.48484848,2.75757576 5.51515152,5.83333333 C2.43939394,9.01515152 0.848484848,13.2575758 0.848484848,17.7121212 C0.848484848,22.1666667 2.54545455,26.4090909 5.51515152,29.5909091 C8.48484848,32.6666667 12.3030303,34.3636364 16.4393939,34.5757576 L16.4393939,34.5757576 L16.969697,34.5757576 L17.5,34.5757576 L17.5,34.5757576 C21.6363636,34.469697 25.4545455,32.6666667 28.4242424,29.5909091 C31.5,26.4090909 33.0909091,22.1666667 33.0909091,17.7121212 C33.0909091,13.2575758 31.5,9.01515152 28.4242424,5.83333333 Z M24.9242424,17.7121212 C24.9242424,19.4090909 24.7121212,21 24.5,22.4848485 L18.1363636,22.4848485 L18.1363636,12.7272727 L24.5,12.7272727 C24.8181818,14.3181818 24.9242424,16.0151515 24.9242424,17.7121212 Z M26.7272727,7.42424242 C27.5757576,8.37878788 28.3181818,9.33333333 28.9545455,10.3939394 L26.3030303,10.3939394 C25.8787879,8.8030303 25.2424242,7.31818182 24.5,6.04545455 C24.2878788,5.72727273 24.0757576,5.40909091 23.8636364,5.09090909 C24.9242424,5.72727273 25.8787879,6.46969697 26.7272727,7.42424242 Z M22.4848485,7.21212121 C23.0151515,8.16666667 23.5454545,9.22727273 23.8636364,10.3939394 L18.1363636,10.3939394 L18.1363636,3.28787879 C19.7272727,3.81818182 21.2121212,5.09090909 22.4848485,7.21212121 Z M15.8030303,3.39393939 L15.8030303,10.5 L10.0757576,10.5 C10.5,9.33333333 10.9242424,8.27272727 11.4545455,7.31818182 C12.7272727,5.09090909 14.2121212,3.81818182 15.8030303,3.39393939 Z M7.21212121,7.42424242 C8.06060606,6.46969697 9.01515152,5.72727273 10.0757576,5.09090909 C9.86363636,5.40909091 9.65151515,5.72727273 9.43939394,6.04545455 C8.6969697,7.31818182 8.06060606,8.8030303 7.63636364,10.3939394 L4.98484848,10.3939394 C5.62121212,9.33333333 6.36363636,8.27272727 7.21212121,7.42424242 Z M3.18181818,17.7121212 C3.18181818,16.0151515 3.5,14.3181818 4.03030303,12.7272727 L7.10606061,12.7272727 C6.78787879,14.3181818 6.68181818,16.0151515 6.68181818,17.7121212 C6.68181818,19.3030303 6.78787879,20.8939394 7.10606061,22.4848485 L3.92424242,22.4848485 C3.39393939,21 3.18181818,19.4090909 3.18181818,17.7121212 Z M7.21212121,28 C6.25757576,27.0454545 5.51515152,25.9848485 4.87878788,24.8181818 L7.63636364,24.8181818 C8.06060606,26.5151515 8.6969697,28.1060606 9.54545455,29.4848485 C9.75757576,29.8030303 9.96969697,30.1212121 10.1818182,30.4393939 C9.01515152,29.6969697 8.06060606,28.9545455 7.21212121,28 Z M15.8030303,32.1363636 C14.2121212,31.7121212 12.7272727,30.3333333 11.4545455,28.3181818 C10.8181818,27.2575758 10.3939394,26.0909091 9.96969697,24.8181818 L15.8030303,24.8181818 L15.8030303,32.1363636 Z M9.43939394,22.4848485 C9.12121212,21 9.01515152,19.4090909 9.01515152,17.7121212 C9.01515152,16.0151515 9.22727273,14.3181818 9.54545455,12.7272727 L15.9090909,12.7272727 L15.9090909,22.4848485 L9.43939394,22.4848485 Z M18.1363636,32.1363636 L18.1363636,24.8181818 L23.969697,24.8181818 C23.5454545,26.0909091 23.1212121,27.2575758 22.4848485,28.3181818 C21.2121212,30.3333333 19.7272727,31.6060606 18.1363636,32.1363636 Z M26.7272727,28 C25.8787879,28.9545455 24.9242424,29.6969697 23.8636364,30.3333333 C24.0757576,30.0151515 24.2878788,29.6969697 24.5,29.3787879 C25.3484848,28 25.8787879,26.4090909 26.4090909,24.7121212 L29.1666667,24.7121212 C28.4242424,25.9848485 27.6818182,27.0454545 26.7272727,28 Z M30.0151515,22.4848485 L26.8333333,22.4848485 C27.1515152,21 27.2575758,19.4090909 27.2575758,17.7121212 C27.2575758,16.0151515 27.1515152,14.3181818 26.8333333,12.7272727 L29.9090909,12.7272727 C30.4393939,14.3181818 30.7575758,16.0151515 30.7575758,17.7121212 C30.7575758,19.4090909 30.5454545,21 30.0151515,22.4848485 Z" id="Shape"></path>
                        </g>
                    </g>
                </g>
            </g>
        </g>
    </g>
</svg>